# xmcd CD database file
#
# Track frame offsets:
#	150
#	1291
#	16145
#	33688
#	51696
#	68786
#	89504
#	100305
#	119191
#	134489
#	147987
#	160605
#	174987
#	192950
#	207390
#	218190
#	232587
#	249994
#	267862
#
# Disc length: 3860 seconds
#
# Revision: 0
# Processed by: cddbd v1.5.2PL0 Copyright (c) Steve Scherf et al.
# Submitted via: Feurio! 1.68 - http://www.feurio.com
#
DISCID=130f1213
DTITLE=Various Artist - Bo:Tastic - 2008/I
DYEAR=2008
DGENRE=Aerobic - Tae Bo
TTITLE0=Move Ya! - Intro
TTITLE1=Britney Spears - Gimme More (Paul van Dyk Remix)
TTITLE2=Janet Jackson - Feedback (Club Mix)
TTITLE3=Jamelia - Beware Of The Dog
TTITLE4=Kubik - Turn The Beat Around
TTITLE5=Rihanna - Shut Up and Drive (Remix)
TTITLE6=2-4 Grooves - Writing On The Wall
TTITLE7=De-Grees - Apologize (Rocco and Bass-T Remix)
TTITLE8=Groove Coverage - Because I Love You
TTITLE9=Cascada - What Hurts The Most
TTITLE10=Nightfall - Heaven Is A Place On Earth
TTITLE11=Klub Kidz - Bleeding Love
TTITLE12=Topmodelz - Living On A Prayer
TTITLE13=Basshunter - Now You're Gone
TTITLE14=Brisby and Jingles - When You Say Nothing At All
TTITLE15=Dan Winter - Carry Your Heart
TTITLE16=Brooklyn Bounce - The Theme Recall 2008
TTITLE17=Madcon - Beggin'
TTITLE18=Chillout Area - Mountains Of Ceylon
EXTD=Spring 2008\r\nCardio: 55:29\r\n160 BPM
EXTT0=
EXTT1=
EXTT2=
EXTT3=
EXTT4=
EXTT5=
EXTT6=
EXTT7=
EXTT8=
EXTT9=
EXTT10=
EXTT11=
EXTT12=
EXTT13=
EXTT14=
EXTT15=
EXTT16=
EXTT17=
EXTT18=
PLAYORDER=
